HIERARCHY
ROOT Hips
{
	OFFSET -0.001795 -0.223333 0.028219
	CHANNELS 6 Xposition Yposition Zposition Zrotation Yrotation Xrotation 
	JOINT LeftUpLeg
	{
		OFFSET 0.069520 -0.091406 -0.006815
		CHANNELS 3 Zrotation Yrotation Xrotation
		JOINT LeftLeg
		{
			OFFSET 0.034277 -0.375199 -0.004496
			CHANNELS 3 Zrotation Yrotation Xrotation
			JOINT LeftFoot
			{
				OFFSET -0.013596 -0.397961 -0.043693
				CHANNELS 3 Zrotation Yrotation Xrotation
				JOINT LeftToe
				{
					OFFSET 0.026358 -0.055791 0.119288
					CHANNELS 3 Zrotation Yrotation Xrotation
					End Site
					{
						OFFSET 0.000000 0.000000 0.000000
					}
				}
			}
		}
	}
	JOINT RightUpLeg
	{
		OFFSET -0.067670 -0.090522 -0.004320
		CHANNELS 3 Zrotation Yrotation Xrotation
		JOINT RightLeg
		{
			OFFSET -0.038290 -0.382569 -0.008850
			CHANNELS 3 Zrotation Yrotation Xrotation
			JOINT RightFoot
			{
				OFFSET 0.015774 -0.398415 -0.042312
				CHANNELS 3 Zrotation Yrotation Xrotation
				JOINT RightToe
				{
					OFFSET -0.025372 -0.048144 0.123348
					CHANNELS 3 Zrotation Yrotation Xrotation
					End Site
					{
						OFFSET 0.000000 0.000000 0.000000
					}
				}
			}
		}
	}
	JOINT Spine
	{
		OFFSET -0.002533 0.108963 -0.026696
		CHANNELS 3 Zrotation Yrotation Xrotation
		JOINT Spine1
		{
			OFFSET 0.005487 0.135180 0.001092
			CHANNELS 3 Zrotation Yrotation Xrotation
			JOINT Spine2
			{
				OFFSET 0.001457 0.052922 0.025425
				CHANNELS 3 Zrotation Yrotation Xrotation
				JOINT Neck
				{
					OFFSET -0.002778 0.213870 -0.042857
					CHANNELS 3 Zrotation Yrotation Xrotation
					JOINT Head
					{
						OFFSET 0.005152 0.064970 0.051349
						CHANNELS 3 Zrotation Yrotation Xrotation
						End Site
						{
							OFFSET 0.000000 0.000000 0.000000
						}
					}
				}
				JOINT LeftShoulder
				{
					OFFSET 0.078845 0.121749 -0.034090
					CHANNELS 3 Zrotation Yrotation Xrotation
					JOINT LeftArm
					{
						OFFSET 0.090977 0.030469 -0.008868
						CHANNELS 3 Zrotation Yrotation Xrotation
						JOINT LeftForeArm
						{
							OFFSET 0.259612 -0.012772 -0.027456
							CHANNELS 3 Zrotation Yrotation Xrotation
							JOINT LeftHand
							{
								OFFSET 0.249234 0.008986 -0.001171
								CHANNELS 3 Zrotation Yrotation Xrotation
								End Site
								{
									OFFSET 0.000000 0.000000 0.000000
								}
							}
						}
					}
				}
				JOINT RightShoulder
				{
					OFFSET -0.081759 0.118833 -0.038615
					CHANNELS 3 Zrotation Yrotation Xrotation
					JOINT RightArm
					{
						OFFSET -0.096012 0.032551 -0.009143
						CHANNELS 3 Zrotation Yrotation Xrotation
						JOINT RightForeArm
						{
							OFFSET -0.253742 -0.013329 -0.021401
							CHANNELS 3 Zrotation Yrotation Xrotation
							JOINT RightHand
							{
								OFFSET -0.255298 0.007772 -0.005559
								CHANNELS 3 Zrotation Yrotation Xrotation
								End Site
								{
									OFFSET 0.000000 0.000000 0.000000
								}
							}
						}
					}
				}
			}
		}
	}
}
MOTION
Frames: 9
Frame Time: 0.050000
0.011733 0.937191 0.014998 -2.837217 -0.076070 9.100059 9.017531 -0.444945 -12.393454 -1.325585 -0.032237 8.161388 3.517787 9.367894 7.526055 0.000000 0.000000 0.000000 -1.181348 1.510523 -16.126301 -1.618890 0.697615 9.792028 -0.393363 -4.602126 8.524055 0.000000 0.000000 0.000000 3.675262 -0.175306 0.369098 0.725704 -0.397548 1.741457 -4.634308 2.571379 -1.330586 7.798478 -4.162927 -9.567283 0.000000 0.000000 0.000000 -20.499842 -21.827749 9.030704 -26.965603 -38.941818 5.245186 49.639532 -40.988848 -18.074778 0.000000 0.000000 0.000000 23.658663 19.427558 10.742141 35.219154 37.654804 7.177534 -32.197193 64.623147 -16.827817 0.000000 0.000000 0.000000 
0.012194 0.936581 0.017388 -2.950529 0.507936 8.930044 9.065741 -0.449688 -11.705271 -1.129088 -0.055546 7.332919 3.295461 8.915420 7.098460 0.000000 0.000000 0.000000 -0.826493 1.477836 -15.509577 -1.989650 0.743576 9.464519 -0.665501 -5.028479 8.305910 0.000000 0.000000 0.000000 3.661808 -0.138862 -0.105938 0.869805 -0.478385 1.870449 -4.560889 2.631446 -2.397341 7.906700 -4.278140 -9.063175 0.000000 0.000000 0.000000 -21.885770 -20.449781 8.142111 -29.902587 -39.236796 6.267964 51.561430 -42.224292 -19.689255 0.000000 0.000000 0.000000 24.212708 17.196256 9.505515 37.801316 36.575593 7.607992 -34.685648 65.047110 -18.499011 0.000000 0.000000 0.000000 
0.012400 0.936238 0.019388 -3.022002 1.085479 9.006068 8.964942 -0.472706 -11.515565 -0.714566 -0.118658 6.854443 3.080044 8.506128 6.840041 0.000000 0.000000 0.000000 -0.582162 1.445299 -15.008013 -2.233057 0.745714 8.802406 -0.908789 -5.445739 8.223566 0.000000 0.000000 0.000000 3.626967 -0.062998 -1.150978 0.991743 -0.574408 2.593534 -4.703579 2.306659 -3.444025 7.777594 -4.325777 -8.189462 0.000000 0.000000 0.000000 -23.252466 -18.649886 7.065216 -32.719749 -39.614098 7.292046 51.590357 -43.415292 -20.407768 0.000000 0.000000 0.000000 25.347511 15.254297 8.377419 41.043129 34.418202 7.793602 -35.229960 65.137189 -18.917108 0.000000 0.000000 0.000000 
0.012463 0.935684 0.021207 -3.022844 2.156917 8.896486 9.042573 -0.492908 -11.163712 -0.630103 -0.121918 6.201892 2.629832 7.670741 6.481940 0.000000 0.000000 0.000000 -0.531681 1.384343 -14.454968 -2.166250 0.708124 8.503095 -1.387275 -6.283452 8.078048 0.000000 0.000000 0.000000 3.381840 -0.029000 -1.542009 1.170174 -0.681622 2.690474 -4.708319 2.249030 -4.146568 8.002195 -4.447205 -8.101218 0.000000 0.000000 0.000000 -24.224341 -17.258481 6.013662 -36.575111 -39.073576 8.364659 50.789249 -44.875365 -21.001634 0.000000 0.000000 0.000000 25.836444 12.794643 6.996115 44.662013 30.834178 7.327938 -32.785084 66.695728 -17.748339 0.000000 0.000000 0.000000 
0.012500 0.935009 0.022892 -3.079246 2.648322 8.876522 8.979047 -0.502098 -10.641057 -0.300333 -0.146625 5.316582 2.449073 7.286466 6.185896 0.000000 0.000000 0.000000 -0.202907 1.356888 -13.919596 -2.565479 0.743282 7.913074 -1.614315 -6.654073 7.887939 0.000000 0.000000 0.000000 3.369127 -0.003202 -1.922777 1.285714 -0.766088 3.067867 -5.003837 1.729464 -4.543951 8.074510 -4.553620 -7.774992 0.000000 0.000000 0.000000 -25.234871 -15.188036 4.781154 -39.291389 -37.355813 8.591545 48.959137 -46.889668 -21.161229 0.000000 0.000000 0.000000 26.438409 10.645599 5.551056 47.875604 26.127532 6.127475 -27.990449 70.451412 -15.756193 0.000000 0.000000 0.000000 
0.012547 0.934145 0.024358 -3.033786 2.857005 8.527032 8.724076 -0.502380 -9.999601 0.095862 -0.193137 4.960808 2.396738 7.087766 5.808418 0.000000 0.000000 0.000000 -0.298635 1.288505 -13.288066 -2.430483 0.707266 7.713307 -1.745002 -6.802477 7.507440 0.000000 0.000000 0.000000 3.260527 -0.036131 -1.350494 1.217777 -0.715749 2.690006 -5.065512 1.729838 -4.632491 8.121937 -4.505110 -8.124985 0.000000 0.000000 0.000000 -26.171409 -13.924202 3.924800 -41.385579 -34.962860 8.315106 45.993324 -48.787816 -20.649063 0.000000 0.000000 0.000000 26.478208 8.404723 4.126605 50.481275 21.902848 4.760254 -15.698934 75.661605 -7.831054 0.000000 0.000000 0.000000 
0.012515 0.933563 0.025182 -3.016800 3.172606 8.492925 8.712738 -0.502412 -9.536741 0.162948 -0.173636 4.176993 2.268854 6.812082 5.626828 0.000000 0.000000 0.000000 -0.199383 1.251630 -12.834961 -2.586576 0.701274 7.155908 -1.890606 -7.033434 7.335702 0.000000 0.000000 0.000000 3.411156 -0.049718 -1.219444 1.222596 -0.720012 2.646230 -5.558995 1.463155 -4.592703 8.428962 -4.587885 -8.709554 0.000000 0.000000 0.000000 -26.638423 -12.477706 2.985930 -43.422779 -32.582421 7.909688 42.443819 -49.919870 -19.387940 0.000000 0.000000 0.000000 26.415549 6.872899 3.144318 52.419071 18.700930 3.593221 6.714327 79.707680 10.166638 0.000000 0.000000 0.000000 
0.012329 0.933404 0.025139 -2.941642 3.152570 8.192017 8.306983 -0.502298 -9.047718 0.741901 -0.241741 3.907581 2.265236 6.786201 5.570268 0.000000 0.000000 0.000000 -0.175737 1.206849 -12.333446 -2.742709 0.710839 6.856180 -1.883372 -6.987482 7.217245 0.000000 0.000000 0.000000 3.257542 -0.068922 -0.820974 1.290143 -0.746021 2.510295 -5.861947 1.502821 -4.553220 8.562500 -4.532095 -9.394066 0.000000 0.000000 0.000000 -26.639084 -11.546260 2.346375 -45.198918 -30.021859 7.287693 38.726792 -50.979221 -17.981454 0.000000 0.000000 0.000000 26.348504 5.733892 2.455882 53.415815 17.214953 3.014770 30.513558 80.286663 30.552384 0.000000 0.000000 0.000000 
0.012030 0.933211 0.024120 -2.910378 2.967536 8.080750 8.358862 -0.494762 -9.079789 0.579622 -0.229380 4.143894 2.350820 6.919426 5.526794 0.000000 0.000000 0.000000 -0.095827 1.197967 -12.166106 -2.945627 0.731417 6.620860 -1.807892 -6.823165 7.138759 0.000000 0.000000 0.000000 3.148024 -0.084652 -0.514063 1.165322 -0.677697 2.428781 -5.897785 1.365403 -4.469151 8.811052 -4.472312 -10.548210 0.000000 0.000000 0.000000 -26.601181 -11.602274 2.469976 -45.835868 -28.420971 6.739182 34.111030 -50.803957 -15.496653 0.000000 0.000000 0.000000 26.002950 6.206622 2.678290 53.213307 18.600725 3.648215 29.241465 79.016031 28.722806 0.000000 0.000000 0.000000 
